<svg id="visual" viewBox="0 0 900 600" width="900" height="600" xmlns="http://www.w3.org/2000/svg" xmlns:xlink="http://www.w3.org/1999/xlink" version="1.1"><rect x="0" y="0" width="900" height="600" fill="#7721bf"></rect><defs><linearGradient id="grad1_0" x1="33.3%" y1="100%" x2="100%" y2="0%"><stop offset="20%" stop-color="#7721bf" stop-opacity="1"></stop><stop offset="80%" stop-color="#7721bf" stop-opacity="1"></stop></linearGradient></defs><defs><linearGradient id="grad2_0" x1="0%" y1="100%" x2="66.7%" y2="0%"><stop offset="20%" stop-color="#7721bf" stop-opacity="1"></stop><stop offset="80%" stop-color="#7721bf" stop-opacity="1"></stop></linearGradient></defs><g transform="translate(900, 600)"><path d="M-338 0C-340.1 -30.5 -342.3 -61 -335.2 -89.8C-328.1 -118.6 -311.8 -145.7 -294.4 -170C-277.1 -194.3 -258.6 -215.9 -239.7 -239.7C-220.8 -263.5 -201.4 -289.6 -175.8 -304.4C-150.1 -319.2 -118.1 -322.7 -87.7 -327.4C-57.4 -332.2 -28.7 -338.1 0 -344L0 0Z" fill="#470083"></path></g><g transform="translate(0, 0)"><path d="M350 0C346.7 30 343.5 60.1 337.1 90.3C330.7 120.6 321.2 151.1 303.1 175C285 198.9 258.3 216.1 235.5 235.5C212.6 254.8 193.6 276.3 170.5 295.3C147.4 314.4 120.1 331 91 339.6C61.9 348.1 30.9 348.6 0 349L0 0Z" fill="#470083"></path></g></svg>